# MagicaVoxel @ Ephtracy

# group
o 

# material
mtllib chest.mtl
usemtl palette

# normals
vn -1 0 0
vn 1 0 0
vn 0 0 1
vn 0 0 -1
vn 0 -1 0
vn 0 1 0

# texcoords
vt 0.306641 0.5
vt 0.982422 0.5
vt 0.986328 0.5

# verts
v -0.8 0 0.7
v -0.8 0 -0.7
v -0.8 0.2 0.7
v -0.8 0.2 -0.7
v -0.8 0.7 0.7
v -0.8 0.7 -0.7
v -0.8 1 0.7
v -0.8 1 -0.7
v -0.7 0.2 0.6
v -0.7 0.2 -0.6
v -0.7 0.7 0.6
v -0.7 0.7 -0.6
v -0.7 1 0.6
v -0.7 1 -0.6
v -0.7 1.2 0.6
v -0.7 1.2 0.5
v -0.7 1.2 -0.5
v -0.7 1.2 -0.6
v -0.7 1.3 0.5
v -0.7 1.3 0.4
v -0.7 1.3 -0.4
v -0.7 1.3 -0.5
v -0.7 1.4 0.4
v -0.7 1.4 -0.4
v -0.6 0.2 0.7
v -0.6 0.2 0.6
v -0.6 0.2 -0.6
v -0.6 0.2 -0.7
v -0.6 0.7 0.7
v -0.6 0.7 0.6
v -0.6 0.7 -0.6
v -0.6 0.7 -0.7
v -0.6 1 0.7
v -0.6 1 0.6
v -0.6 1 -0.6
v -0.6 1 -0.7
v -0.6 1.2 0.7
v -0.6 1.2 0.6
v -0.6 1.2 0.5
v -0.6 1.2 -0.5
v -0.6 1.2 -0.6
v -0.6 1.2 -0.7
v -0.6 1.3 0.6
v -0.6 1.3 0.5
v -0.6 1.3 0.4
v -0.6 1.3 -0.4
v -0.6 1.3 -0.5
v -0.6 1.3 -0.6
v -0.6 1.4 0.5
v -0.6 1.4 0.4
v -0.6 1.4 -0.4
v -0.6 1.4 -0.5
v -0.6 1.5 0.4
v -0.6 1.5 -0.4
v 0.1 0.8 0.7
v 0.1 0.8 0.6
v 0.1 0.8 -0.6
v 0.1 0.8 -0.7
v 0.1 0.9 0.7
v 0.1 0.9 0.6
v 0.1 0.9 -0.6
v 0.1 0.9 -0.7
v 0.4 0.2 0.7
v 0.4 0.2 0.6
v 0.4 0.2 -0.6
v 0.4 0.2 -0.7
v 0.4 0.7 0.7
v 0.4 0.7 0.6
v 0.4 0.7 -0.6
v 0.4 0.7 -0.7
v 0.4 1 0.7
v 0.4 1 0.6
v 0.4 1 -0.6
v 0.4 1 -0.7
v 0.4 1.2 0.7
v 0.4 1.2 0.6
v 0.4 1.2 0.5
v 0.4 1.2 -0.5
v 0.4 1.2 -0.6
v 0.4 1.2 -0.7
v 0.4 1.3 0.6
v 0.4 1.3 0.5
v 0.4 1.3 0.4
v 0.4 1.3 -0.4
v 0.4 1.3 -0.5
v 0.4 1.3 -0.6
v 0.4 1.4 0.5
v 0.4 1.4 0.4
v 0.4 1.4 -0.4
v 0.4 1.4 -0.5
v 0.4 1.5 0.4
v 0.4 1.5 -0.4
v -0.4 0.2 0.7
v -0.4 0.2 0.6
v -0.4 0.2 -0.6
v -0.4 0.2 -0.7
v -0.4 0.7 0.7
v -0.4 0.7 0.6
v -0.4 0.7 -0.6
v -0.4 0.7 -0.7
v -0.4 1 0.7
v -0.4 1 0.6
v -0.4 1 -0.6
v -0.4 1 -0.7
v -0.4 1.2 0.7
v -0.4 1.2 0.6
v -0.4 1.2 0.5
v -0.4 1.2 -0.5
v -0.4 1.2 -0.6
v -0.4 1.2 -0.7
v -0.4 1.3 0.6
v -0.4 1.3 0.5
v -0.4 1.3 0.4
v -0.4 1.3 -0.4
v -0.4 1.3 -0.5
v -0.4 1.3 -0.6
v -0.4 1.4 0.5
v -0.4 1.4 0.4
v -0.4 1.4 -0.4
v -0.4 1.4 -0.5
v -0.4 1.5 0.4
v -0.4 1.5 -0.4
v -0.1 0.8 0.7
v -0.1 0.8 0.6
v -0.1 0.8 -0.6
v -0.1 0.8 -0.7
v -0.1 0.9 0.7
v -0.1 0.9 0.6
v -0.1 0.9 -0.6
v -0.1 0.9 -0.7
v 0.6 0.2 0.7
v 0.6 0.2 0.6
v 0.6 0.2 -0.6
v 0.6 0.2 -0.7
v 0.6 0.7 0.7
v 0.6 0.7 0.6
v 0.6 0.7 -0.6
v 0.6 0.7 -0.7
v 0.6 1 0.7
v 0.6 1 0.6
v 0.6 1 -0.6
v 0.6 1 -0.7
v 0.6 1.2 0.7
v 0.6 1.2 0.6
v 0.6 1.2 0.5
v 0.6 1.2 -0.5
v 0.6 1.2 -0.6
v 0.6 1.2 -0.7
v 0.6 1.3 0.6
v 0.6 1.3 0.5
v 0.6 1.3 0.4
v 0.6 1.3 -0.4
v 0.6 1.3 -0.5
v 0.6 1.3 -0.6
v 0.6 1.4 0.5
v 0.6 1.4 0.4
v 0.6 1.4 -0.4
v 0.6 1.4 -0.5
v 0.6 1.5 0.4
v 0.6 1.5 -0.4
v 0.7 0.2 0.6
v 0.7 0.2 -0.6
v 0.7 0.7 0.6
v 0.7 0.7 -0.6
v 0.7 1 0.6
v 0.7 1 -0.6
v 0.7 1.2 0.6
v 0.7 1.2 0.5
v 0.7 1.2 -0.5
v 0.7 1.2 -0.6
v 0.7 1.3 0.5
v 0.7 1.3 0.4
v 0.7 1.3 -0.4
v 0.7 1.3 -0.5
v 0.7 1.4 0.4
v 0.7 1.4 -0.4
v 0.8 0 0.7
v 0.8 0 -0.7
v 0.8 0.2 0.7
v 0.8 0.2 -0.7
v 0.8 0.7 0.7
v 0.8 0.7 -0.7
v 0.8 1 0.7
v 0.8 1 -0.7
v -0.8 0 0.7
v -0.8 0.2 0.7
v -0.8 0.7 0.7
v -0.8 1 0.7
v -0.6 0.2 0.7
v -0.6 0.7 0.7
v -0.6 1 0.7
v -0.6 1.2 0.7
v -0.4 0.2 0.7
v -0.4 0.7 0.7
v -0.4 1 0.7
v -0.4 1.2 0.7
v -0.1 0.8 0.7
v -0.1 0.9 0.7
v 0.1 0.8 0.7
v 0.1 0.9 0.7
v 0.4 0.2 0.7
v 0.4 0.7 0.7
v 0.4 1 0.7
v 0.4 1.2 0.7
v 0.6 0.2 0.7
v 0.6 0.7 0.7
v 0.6 1 0.7
v 0.6 1.2 0.7
v 0.8 0 0.7
v 0.8 0.2 0.7
v 0.8 0.7 0.7
v 0.8 1 0.7
v -0.7 0.2 0.6
v -0.7 0.7 0.6
v -0.7 1 0.6
v -0.7 1.2 0.6
v -0.6 0.2 0.6
v -0.6 0.7 0.6
v -0.6 1 0.6
v -0.6 1.2 0.6
v -0.6 1.3 0.6
v -0.4 0.2 0.6
v -0.4 0.7 0.6
v -0.4 1 0.6
v -0.4 1.2 0.6
v -0.4 1.3 0.6
v -0.1 0.8 0.6
v -0.1 0.9 0.6
v 0.1 0.8 0.6
v 0.1 0.9 0.6
v 0.4 0.2 0.6
v 0.4 0.7 0.6
v 0.4 1 0.6
v 0.4 1.2 0.6
v 0.4 1.3 0.6
v 0.6 0.2 0.6
v 0.6 0.7 0.6
v 0.6 1 0.6
v 0.6 1.2 0.6
v 0.6 1.3 0.6
v 0.7 0.2 0.6
v 0.7 0.7 0.6
v 0.7 1 0.6
v 0.7 1.2 0.6
v -0.7 1.2 0.5
v -0.7 1.3 0.5
v -0.6 1.2 0.5
v -0.6 1.3 0.5
v -0.6 1.4 0.5
v -0.4 1.2 0.5
v -0.4 1.3 0.5
v -0.4 1.4 0.5
v 0.4 1.2 0.5
v 0.4 1.3 0.5
v 0.4 1.4 0.5
v 0.6 1.2 0.5
v 0.6 1.3 0.5
v 0.6 1.4 0.5
v 0.7 1.2 0.5
v 0.7 1.3 0.5
v -0.7 1.3 0.4
v -0.7 1.4 0.4
v -0.6 1.3 0.4
v -0.6 1.4 0.4
v -0.6 1.5 0.4
v -0.4 1.3 0.4
v -0.4 1.4 0.4
v -0.4 1.5 0.4
v 0.4 1.3 0.4
v 0.4 1.4 0.4
v 0.4 1.5 0.4
v 0.6 1.3 0.4
v 0.6 1.4 0.4
v 0.6 1.5 0.4
v 0.7 1.3 0.4
v 0.7 1.4 0.4
v -0.7 1.3 -0.4
v -0.7 1.4 -0.4
v -0.6 1.3 -0.4
v -0.6 1.4 -0.4
v -0.6 1.5 -0.4
v -0.4 1.3 -0.4
v -0.4 1.4 -0.4
v -0.4 1.5 -0.4
v 0.4 1.3 -0.4
v 0.4 1.4 -0.4
v 0.4 1.5 -0.4
v 0.6 1.3 -0.4
v 0.6 1.4 -0.4
v 0.6 1.5 -0.4
v 0.7 1.3 -0.4
v 0.7 1.4 -0.4
v -0.7 1.2 -0.5
v -0.7 1.3 -0.5
v -0.6 1.2 -0.5
v -0.6 1.3 -0.5
v -0.6 1.4 -0.5
v -0.4 1.2 -0.5
v -0.4 1.3 -0.5
v -0.4 1.4 -0.5
v 0.4 1.2 -0.5
v 0.4 1.3 -0.5
v 0.4 1.4 -0.5
v 0.6 1.2 -0.5
v 0.6 1.3 -0.5
v 0.6 1.4 -0.5
v 0.7 1.2 -0.5
v 0.7 1.3 -0.5
v -0.7 0.2 -0.6
v -0.7 0.7 -0.6
v -0.7 1 -0.6
v -0.7 1.2 -0.6
v -0.6 0.2 -0.6
v -0.6 0.7 -0.6
v -0.6 1 -0.6
v -0.6 1.2 -0.6
v -0.6 1.3 -0.6
v -0.4 0.2 -0.6
v -0.4 0.7 -0.6
v -0.4 1 -0.6
v -0.4 1.2 -0.6
v -0.4 1.3 -0.6
v -0.1 0.8 -0.6
v -0.1 0.9 -0.6
v 0.1 0.8 -0.6
v 0.1 0.9 -0.6
v 0.4 0.2 -0.6
v 0.4 0.7 -0.6
v 0.4 1 -0.6
v 0.4 1.2 -0.6
v 0.4 1.3 -0.6
v 0.6 0.2 -0.6
v 0.6 0.7 -0.6
v 0.6 1 -0.6
v 0.6 1.2 -0.6
v 0.6 1.3 -0.6
v 0.7 0.2 -0.6
v 0.7 0.7 -0.6
v 0.7 1 -0.6
v 0.7 1.2 -0.6
v -0.8 0 -0.7
v -0.8 0.2 -0.7
v -0.8 0.7 -0.7
v -0.8 1 -0.7
v -0.6 0.2 -0.7
v -0.6 0.7 -0.7
v -0.6 1 -0.7
v -0.6 1.2 -0.7
v -0.4 0.2 -0.7
v -0.4 0.7 -0.7
v -0.4 1 -0.7
v -0.4 1.2 -0.7
v -0.1 0.8 -0.7
v -0.1 0.9 -0.7
v 0.1 0.8 -0.7
v 0.1 0.9 -0.7
v 0.4 0.2 -0.7
v 0.4 0.7 -0.7
v 0.4 1 -0.7
v 0.4 1.2 -0.7
v 0.6 0.2 -0.7
v 0.6 0.7 -0.7
v 0.6 1 -0.7
v 0.6 1.2 -0.7
v 0.8 0 -0.7
v 0.8 0.2 -0.7
v 0.8 0.7 -0.7
v 0.8 1 -0.7
v -0.8 0 0.7
v 0.8 0 0.7
v -0.7 0 0.6
v 0.7 0 0.6
v -0.7 0 -0.6
v 0.7 0 -0.6
v -0.8 0 -0.7
v 0.8 0 -0.7
v -0.8 0.7 0.7
v -0.6 0.7 0.7
v -0.4 0.7 0.7
v 0.4 0.7 0.7
v 0.6 0.7 0.7
v 0.8 0.7 0.7
v -0.7 0.7 0.6
v -0.6 0.7 0.6
v -0.4 0.7 0.6
v 0.4 0.7 0.6
v 0.6 0.7 0.6
v 0.7 0.7 0.6
v -0.7 0.7 -0.6
v -0.6 0.7 -0.6
v -0.4 0.7 -0.6
v 0.4 0.7 -0.6
v 0.6 0.7 -0.6
v 0.7 0.7 -0.6
v -0.8 0.7 -0.7
v -0.6 0.7 -0.7
v -0.4 0.7 -0.7
v 0.4 0.7 -0.7
v 0.6 0.7 -0.7
v 0.8 0.7 -0.7
v -0.1 0.9 0.7
v 0.1 0.9 0.7
v -0.1 0.9 0.6
v 0.1 0.9 0.6
v -0.1 0.9 -0.6
v 0.1 0.9 -0.6
v -0.1 0.9 -0.7
v 0.1 0.9 -0.7
v -0.8 0.2 0.7
v -0.6 0.2 0.7
v -0.4 0.2 0.7
v 0.4 0.2 0.7
v 0.6 0.2 0.7
v 0.8 0.2 0.7
v -0.7 0.2 0.6
v -0.6 0.2 0.6
v -0.4 0.2 0.6
v 0.4 0.2 0.6
v 0.6 0.2 0.6
v 0.7 0.2 0.6
v -0.7 0.2 -0.6
v -0.6 0.2 -0.6
v -0.4 0.2 -0.6
v 0.4 0.2 -0.6
v 0.6 0.2 -0.6
v 0.7 0.2 -0.6
v -0.8 0.2 -0.7
v -0.6 0.2 -0.7
v -0.4 0.2 -0.7
v 0.4 0.2 -0.7
v 0.6 0.2 -0.7
v 0.8 0.2 -0.7
v -0.1 0.8 0.7
v 0.1 0.8 0.7
v -0.1 0.8 0.6
v 0.1 0.8 0.6
v -0.1 0.8 -0.6
v 0.1 0.8 -0.6
v -0.1 0.8 -0.7
v 0.1 0.8 -0.7
v -0.8 1 0.7
v -0.6 1 0.7
v -0.4 1 0.7
v 0.4 1 0.7
v 0.6 1 0.7
v 0.8 1 0.7
v -0.7 1 0.6
v -0.6 1 0.6
v -0.4 1 0.6
v 0.4 1 0.6
v 0.6 1 0.6
v 0.7 1 0.6
v -0.7 1 -0.6
v -0.6 1 -0.6
v -0.4 1 -0.6
v 0.4 1 -0.6
v 0.6 1 -0.6
v 0.7 1 -0.6
v -0.8 1 -0.7
v -0.6 1 -0.7
v -0.4 1 -0.7
v 0.4 1 -0.7
v 0.6 1 -0.7
v 0.8 1 -0.7
v -0.6 1.2 0.7
v -0.4 1.2 0.7
v 0.4 1.2 0.7
v 0.6 1.2 0.7
v -0.7 1.2 0.6
v -0.6 1.2 0.6
v -0.4 1.2 0.6
v 0.4 1.2 0.6
v 0.6 1.2 0.6
v 0.7 1.2 0.6
v -0.7 1.2 0.5
v -0.6 1.2 0.5
v -0.4 1.2 0.5
v 0.4 1.2 0.5
v 0.6 1.2 0.5
v 0.7 1.2 0.5
v -0.7 1.2 -0.5
v -0.6 1.2 -0.5
v -0.4 1.2 -0.5
v 0.4 1.2 -0.5
v 0.6 1.2 -0.5
v 0.7 1.2 -0.5
v -0.7 1.2 -0.6
v -0.6 1.2 -0.6
v -0.4 1.2 -0.6
v 0.4 1.2 -0.6
v 0.6 1.2 -0.6
v 0.7 1.2 -0.6
v -0.6 1.2 -0.7
v -0.4 1.2 -0.7
v 0.4 1.2 -0.7
v 0.6 1.2 -0.7
v -0.6 1.3 0.6
v -0.4 1.3 0.6
v 0.4 1.3 0.6
v 0.6 1.3 0.6
v -0.7 1.3 0.5
v -0.6 1.3 0.5
v -0.4 1.3 0.5
v 0.4 1.3 0.5
v 0.6 1.3 0.5
v 0.7 1.3 0.5
v -0.7 1.3 0.4
v -0.6 1.3 0.4
v -0.4 1.3 0.4
v 0.4 1.3 0.4
v 0.6 1.3 0.4
v 0.7 1.3 0.4
v -0.7 1.3 -0.4
v -0.6 1.3 -0.4
v -0.4 1.3 -0.4
v 0.4 1.3 -0.4
v 0.6 1.3 -0.4
v 0.7 1.3 -0.4
v -0.7 1.3 -0.5
v -0.6 1.3 -0.5
v -0.4 1.3 -0.5
v 0.4 1.3 -0.5
v 0.6 1.3 -0.5
v 0.7 1.3 -0.5
v -0.6 1.3 -0.6
v -0.4 1.3 -0.6
v 0.4 1.3 -0.6
v 0.6 1.3 -0.6
v -0.6 1.4 0.5
v -0.4 1.4 0.5
v 0.4 1.4 0.5
v 0.6 1.4 0.5
v -0.7 1.4 0.4
v -0.6 1.4 0.4
v -0.4 1.4 0.4
v 0.4 1.4 0.4
v 0.6 1.4 0.4
v 0.7 1.4 0.4
v -0.7 1.4 -0.4
v -0.6 1.4 -0.4
v -0.4 1.4 -0.4
v 0.4 1.4 -0.4
v 0.6 1.4 -0.4
v 0.7 1.4 -0.4
v -0.6 1.4 -0.5
v -0.4 1.4 -0.5
v 0.4 1.4 -0.5
v 0.6 1.4 -0.5
v -0.6 1.5 0.4
v -0.4 1.5 0.4
v 0.4 1.5 0.4
v 0.6 1.5 0.4
v -0.6 1.5 -0.4
v -0.4 1.5 -0.4
v 0.4 1.5 -0.4
v 0.6 1.5 -0.4

# faces
f 3/2/1 2/2/1 1/2/1
f 4/2/1 2/2/1 3/2/1
f 7/2/1 6/2/1 5/2/1
f 8/2/1 6/2/1 7/2/1
f 11/1/1 10/1/1 9/1/1
f 12/1/1 10/1/1 11/1/1
f 15/1/1 14/1/1 13/1/1
f 16/1/1 14/1/1 15/1/1
f 17/1/1 14/1/1 16/1/1
f 18/1/1 14/1/1 17/1/1
f 19/1/1 17/1/1 16/1/1
f 20/1/1 17/1/1 19/1/1
f 21/1/1 17/1/1 20/1/1
f 22/1/1 17/1/1 21/1/1
f 23/1/1 21/1/1 20/1/1
f 24/1/1 21/1/1 23/1/1
f 29/2/1 26/2/1 25/2/1
f 30/2/1 26/2/1 29/2/1
f 31/2/1 28/2/1 27/2/1
f 32/2/1 28/2/1 31/2/1
f 37/2/1 34/2/1 33/2/1
f 38/2/1 34/2/1 37/2/1
f 41/2/1 36/2/1 35/2/1
f 42/2/1 36/2/1 41/2/1
f 43/2/1 39/2/1 38/2/1
f 44/2/1 39/2/1 43/2/1
f 47/2/1 41/2/1 40/2/1
f 48/2/1 41/2/1 47/2/1
f 49/2/1 45/2/1 44/2/1
f 50/2/1 45/2/1 49/2/1
f 51/2/1 47/2/1 46/2/1
f 52/2/1 47/2/1 51/2/1
f 53/2/1 51/2/1 50/2/1
f 54/2/1 51/2/1 53/2/1
f 59/2/1 56/2/1 55/2/1
f 60/2/1 56/2/1 59/2/1
f 61/2/1 58/2/1 57/2/1
f 62/2/1 58/2/1 61/2/1
f 67/2/1 64/2/1 63/2/1
f 68/2/1 64/2/1 67/2/1
f 69/2/1 66/2/1 65/2/1
f 70/2/1 66/2/1 69/2/1
f 75/2/1 72/2/1 71/2/1
f 76/2/1 72/2/1 75/2/1
f 79/2/1 74/2/1 73/2/1
f 80/2/1 74/2/1 79/2/1
f 81/2/1 77/2/1 76/2/1
f 82/2/1 77/2/1 81/2/1
f 85/2/1 79/2/1 78/2/1
f 86/2/1 79/2/1 85/2/1
f 87/2/1 83/2/1 82/2/1
f 88/2/1 83/2/1 87/2/1
f 89/2/1 85/2/1 84/2/1
f 90/2/1 85/2/1 89/2/1
f 91/2/1 89/2/1 88/2/1
f 92/2/1 89/2/1 91/2/1
f 93/2/2 94/2/2 97/2/2
f 97/2/2 94/2/2 98/2/2
f 95/2/2 96/2/2 99/2/2
f 99/2/2 96/2/2 100/2/2
f 101/2/2 102/2/2 105/2/2
f 105/2/2 102/2/2 106/2/2
f 103/2/2 104/2/2 109/2/2
f 109/2/2 104/2/2 110/2/2
f 106/2/2 107/2/2 111/2/2
f 111/2/2 107/2/2 112/2/2
f 108/2/2 109/2/2 115/2/2
f 115/2/2 109/2/2 116/2/2
f 112/2/2 113/2/2 117/2/2
f 117/2/2 113/2/2 118/2/2
f 114/2/2 115/2/2 119/2/2
f 119/2/2 115/2/2 120/2/2
f 118/2/2 119/2/2 121/2/2
f 121/2/2 119/2/2 122/2/2
f 123/2/2 124/2/2 127/2/2
f 127/2/2 124/2/2 128/2/2
f 125/2/2 126/2/2 129/2/2
f 129/2/2 126/2/2 130/2/2
f 131/2/2 132/2/2 135/2/2
f 135/2/2 132/2/2 136/2/2
f 133/2/2 134/2/2 137/2/2
f 137/2/2 134/2/2 138/2/2
f 139/2/2 140/2/2 143/2/2
f 143/2/2 140/2/2 144/2/2
f 141/2/2 142/2/2 147/2/2
f 147/2/2 142/2/2 148/2/2
f 144/2/2 145/2/2 149/2/2
f 149/2/2 145/2/2 150/2/2
f 146/2/2 147/2/2 153/2/2
f 153/2/2 147/2/2 154/2/2
f 150/2/2 151/2/2 155/2/2
f 155/2/2 151/2/2 156/2/2
f 152/2/2 153/2/2 157/2/2
f 157/2/2 153/2/2 158/2/2
f 156/2/2 157/2/2 159/2/2
f 159/2/2 157/2/2 160/2/2
f 161/1/2 162/1/2 163/1/2
f 163/1/2 162/1/2 164/1/2
f 165/1/2 166/1/2 167/1/2
f 167/1/2 166/1/2 168/1/2
f 168/1/2 166/1/2 169/1/2
f 169/1/2 166/1/2 170/1/2
f 168/1/2 169/1/2 171/1/2
f 171/1/2 169/1/2 172/1/2
f 172/1/2 169/1/2 173/1/2
f 173/1/2 169/1/2 174/1/2
f 172/1/2 173/1/2 175/1/2
f 175/1/2 173/1/2 176/1/2
f 177/2/2 178/2/2 179/2/2
f 179/2/2 178/2/2 180/2/2
f 181/2/2 182/2/2 183/2/2
f 183/2/2 182/2/2 184/2/2
f 189/2/3 186/2/3 185/2/3
f 190/2/3 188/2/3 187/2/3
f 191/2/3 188/2/3 190/2/3
f 193/2/3 189/2/3 185/2/3
f 193/2/3 192/2/3 191/2/3
f 193/2/3 191/2/3 190/2/3
f 193/2/3 190/2/3 189/2/3
f 194/2/3 192/2/3 193/2/3
f 195/2/3 192/2/3 194/2/3
f 196/2/3 192/2/3 195/2/3
f 197/2/3 195/2/3 194/2/3
f 198/2/3 195/2/3 197/2/3
f 199/2/3 197/2/3 194/2/3
f 200/2/3 195/2/3 198/2/3
f 201/2/3 193/2/3 185/2/3
f 202/2/3 200/2/3 199/2/3
f 202/2/3 199/2/3 194/2/3
f 203/2/3 195/2/3 200/2/3
f 203/2/3 200/2/3 202/2/3
f 205/2/3 201/2/3 185/2/3
f 205/2/3 204/2/3 203/2/3
f 205/2/3 203/2/3 202/2/3
f 205/2/3 202/2/3 201/2/3
f 206/2/3 204/2/3 205/2/3
f 207/2/3 204/2/3 206/2/3
f 208/2/3 204/2/3 207/2/3
f 209/2/3 205/2/3 185/2/3
f 210/2/3 205/2/3 209/2/3
f 211/2/3 207/2/3 206/2/3
f 212/2/3 207/2/3 211/2/3
f 217/1/3 214/1/3 213/1/3
f 218/1/3 214/1/3 217/1/3
f 219/1/3 216/1/3 215/1/3
f 220/1/3 216/1/3 219/1/3
f 225/2/3 221/2/3 220/2/3
f 226/2/3 221/2/3 225/2/3
f 229/3/3 228/3/3 227/3/3
f 230/3/3 228/3/3 229/3/3
f 231/1/3 223/1/3 222/1/3
f 232/1/3 223/1/3 231/1/3
f 233/1/3 225/1/3 224/1/3
f 234/1/3 225/1/3 233/1/3
f 239/2/3 235/2/3 234/2/3
f 240/2/3 235/2/3 239/2/3
f 241/1/3 237/1/3 236/1/3
f 242/1/3 237/1/3 241/1/3
f 243/1/3 239/1/3 238/1/3
f 244/1/3 239/1/3 243/1/3
f 247/1/3 246/1/3 245/1/3
f 248/1/3 246/1/3 247/1/3
f 251/2/3 249/2/3 248/2/3
f 252/2/3 249/2/3 251/2/3
f 253/1/3 251/1/3 250/1/3
f 254/1/3 251/1/3 253/1/3
f 257/2/3 255/2/3 254/2/3
f 258/2/3 255/2/3 257/2/3
f 259/1/3 257/1/3 256/1/3
f 260/1/3 257/1/3 259/1/3
f 263/1/3 262/1/3 261/1/3
f 264/1/3 262/1/3 263/1/3
f 267/2/3 265/2/3 264/2/3
f 268/2/3 265/2/3 267/2/3
f 269/1/3 267/1/3 266/1/3
f 270/1/3 267/1/3 269/1/3
f 273/2/3 271/2/3 270/2/3
f 274/2/3 271/2/3 273/2/3
f 275/1/3 273/1/3 272/1/3
f 276/1/3 273/1/3 275/1/3
f 277/1/4 278/1/4 279/1/4
f 279/1/4 278/1/4 280/1/4
f 280/2/4 281/2/4 283/2/4
f 283/2/4 281/2/4 284/2/4
f 282/1/4 283/1/4 285/1/4
f 285/1/4 283/1/4 286/1/4
f 286/2/4 287/2/4 289/2/4
f 289/2/4 287/2/4 290/2/4
f 288/1/4 289/1/4 291/1/4
f 291/1/4 289/1/4 292/1/4
f 293/1/4 294/1/4 295/1/4
f 295/1/4 294/1/4 296/1/4
f 296/2/4 297/2/4 299/2/4
f 299/2/4 297/2/4 300/2/4
f 298/1/4 299/1/4 301/1/4
f 301/1/4 299/1/4 302/1/4
f 302/2/4 303/2/4 305/2/4
f 305/2/4 303/2/4 306/2/4
f 304/1/4 305/1/4 307/1/4
f 307/1/4 305/1/4 308/1/4
f 309/1/4 310/1/4 313/1/4
f 313/1/4 310/1/4 314/1/4
f 311/1/4 312/1/4 315/1/4
f 315/1/4 312/1/4 316/1/4
f 316/2/4 317/2/4 321/2/4
f 321/2/4 317/2/4 322/2/4
f 323/3/4 324/3/4 325/3/4
f 325/3/4 324/3/4 326/3/4
f 318/1/4 319/1/4 327/1/4
f 327/1/4 319/1/4 328/1/4
f 320/1/4 321/1/4 329/1/4
f 329/1/4 321/1/4 330/1/4
f 330/2/4 331/2/4 335/2/4
f 335/2/4 331/2/4 336/2/4
f 332/1/4 333/1/4 337/1/4
f 337/1/4 333/1/4 338/1/4
f 334/1/4 335/1/4 339/1/4
f 339/1/4 335/1/4 340/1/4
f 341/2/4 342/2/4 345/2/4
f 343/2/4 344/2/4 346/2/4
f 346/2/4 344/2/4 347/2/4
f 341/2/4 345/2/4 349/2/4
f 347/2/4 348/2/4 349/2/4
f 346/2/4 347/2/4 349/2/4
f 345/2/4 346/2/4 349/2/4
f 349/2/4 348/2/4 350/2/4
f 350/2/4 348/2/4 351/2/4
f 351/2/4 348/2/4 352/2/4
f 350/2/4 351/2/4 353/2/4
f 353/2/4 351/2/4 354/2/4
f 350/2/4 353/2/4 355/2/4
f 354/2/4 351/2/4 356/2/4
f 341/2/4 349/2/4 357/2/4
f 355/2/4 356/2/4 358/2/4
f 350/2/4 355/2/4 358/2/4
f 356/2/4 351/2/4 359/2/4
f 358/2/4 356/2/4 359/2/4
f 341/2/4 357/2/4 361/2/4
f 359/2/4 360/2/4 361/2/4
f 358/2/4 359/2/4 361/2/4
f 357/2/4 358/2/4 361/2/4
f 361/2/4 360/2/4 362/2/4
f 362/2/4 360/2/4 363/2/4
f 363/2/4 360/2/4 364/2/4
f 341/2/4 361/2/4 365/2/4
f 365/2/4 361/2/4 366/2/4
f 362/2/4 363/2/4 367/2/4
f 367/2/4 363/2/4 368/2/4
f 371/2/5 370/2/5 369/2/5
f 372/2/5 370/2/5 371/2/5
f 373/2/5 371/2/5 369/2/5
f 373/1/5 372/1/5 371/1/5
f 374/2/5 370/2/5 372/2/5
f 374/1/5 372/1/5 373/1/5
f 375/2/5 373/2/5 369/2/5
f 375/2/5 374/2/5 373/2/5
f 376/2/5 370/2/5 374/2/5
f 376/2/5 374/2/5 375/2/5
f 383/2/5 378/2/5 377/2/5
f 384/2/5 378/2/5 383/2/5
f 385/2/5 380/2/5 379/2/5
f 386/2/5 380/2/5 385/2/5
f 387/2/5 382/2/5 381/2/5
f 388/2/5 382/2/5 387/2/5
f 389/2/5 383/2/5 377/2/5
f 394/2/5 382/2/5 388/2/5
f 395/2/5 389/2/5 377/2/5
f 395/2/5 390/2/5 389/2/5
f 396/2/5 390/2/5 395/2/5
f 397/2/5 392/2/5 391/2/5
f 398/2/5 392/2/5 397/2/5
f 399/2/5 394/2/5 393/2/5
f 400/2/5 382/2/5 394/2/5
f 400/2/5 394/2/5 399/2/5
f 403/2/5 402/2/5 401/2/5
f 404/2/5 402/2/5 403/2/5
f 407/2/5 406/2/5 405/2/5
f 408/2/5 406/2/5 407/2/5
f 409/2/6 410/2/6 415/2/6
f 415/2/6 410/2/6 416/2/6
f 411/2/6 412/2/6 417/2/6
f 417/2/6 412/2/6 418/2/6
f 413/2/6 414/2/6 419/2/6
f 419/2/6 414/2/6 420/2/6
f 409/2/6 415/2/6 421/2/6
f 420/2/6 414/2/6 426/2/6
f 409/2/6 421/2/6 427/2/6
f 421/2/6 422/2/6 427/2/6
f 427/2/6 422/2/6 428/2/6
f 423/2/6 424/2/6 429/2/6
f 429/2/6 424/2/6 430/2/6
f 425/2/6 426/2/6 431/2/6
f 426/2/6 414/2/6 432/2/6
f 431/2/6 426/2/6 432/2/6
f 433/2/6 434/2/6 435/2/6
f 435/2/6 434/2/6 436/2/6
f 437/2/6 438/2/6 439/2/6
f 439/2/6 438/2/6 440/2/6
f 441/2/6 442/2/6 447/2/6
f 447/2/6 442/2/6 448/2/6
f 443/2/6 444/2/6 449/2/6
f 449/2/6 444/2/6 450/2/6
f 445/2/6 446/2/6 451/2/6
f 451/2/6 446/2/6 452/2/6
f 441/2/6 447/2/6 453/2/6
f 452/2/6 446/2/6 458/2/6
f 441/2/6 453/2/6 459/2/6
f 453/2/6 454/2/6 459/2/6
f 459/2/6 454/2/6 460/2/6
f 455/2/6 456/2/6 461/2/6
f 461/2/6 456/2/6 462/2/6
f 457/2/6 458/2/6 463/2/6
f 458/2/6 446/2/6 464/2/6
f 463/2/6 458/2/6 464/2/6
f 465/2/6 466/2/6 470/2/6
f 470/2/6 466/2/6 471/2/6
f 467/2/6 468/2/6 472/2/6
f 472/2/6 468/2/6 473/2/6
f 469/1/6 470/1/6 475/1/6
f 475/1/6 470/1/6 476/1/6
f 471/1/6 472/1/6 477/1/6
f 477/1/6 472/1/6 478/1/6
f 473/1/6 474/1/6 479/1/6
f 479/1/6 474/1/6 480/1/6
f 481/1/6 482/1/6 487/1/6
f 487/1/6 482/1/6 488/1/6
f 483/1/6 484/1/6 489/1/6
f 489/1/6 484/1/6 490/1/6
f 485/1/6 486/1/6 491/1/6
f 491/1/6 486/1/6 492/1/6
f 488/2/6 489/2/6 493/2/6
f 493/2/6 489/2/6 494/2/6
f 490/2/6 491/2/6 495/2/6
f 495/2/6 491/2/6 496/2/6
f 497/2/6 498/2/6 502/2/6
f 502/2/6 498/2/6 503/2/6
f 499/2/6 500/2/6 504/2/6
f 504/2/6 500/2/6 505/2/6
f 501/1/6 502/1/6 507/1/6
f 507/1/6 502/1/6 508/1/6
f 503/1/6 504/1/6 509/1/6
f 509/1/6 504/1/6 510/1/6
f 505/1/6 506/1/6 511/1/6
f 511/1/6 506/1/6 512/1/6
f 513/1/6 514/1/6 519/1/6
f 519/1/6 514/1/6 520/1/6
f 515/1/6 516/1/6 521/1/6
f 521/1/6 516/1/6 522/1/6
f 517/1/6 518/1/6 523/1/6
f 523/1/6 518/1/6 524/1/6
f 520/2/6 521/2/6 525/2/6
f 525/2/6 521/2/6 526/2/6
f 522/2/6 523/2/6 527/2/6
f 527/2/6 523/2/6 528/2/6
f 529/2/6 530/2/6 534/2/6
f 534/2/6 530/2/6 535/2/6
f 531/2/6 532/2/6 536/2/6
f 536/2/6 532/2/6 537/2/6
f 533/1/6 534/1/6 539/1/6
f 539/1/6 534/1/6 540/1/6
f 535/1/6 536/1/6 541/1/6
f 541/1/6 536/1/6 542/1/6
f 537/1/6 538/1/6 543/1/6
f 543/1/6 538/1/6 544/1/6
f 540/2/6 541/2/6 545/2/6
f 545/2/6 541/2/6 546/2/6
f 542/2/6 543/2/6 547/2/6
f 547/2/6 543/2/6 548/2/6
f 549/2/6 550/2/6 553/2/6
f 553/2/6 550/2/6 554/2/6
f 551/2/6 552/2/6 555/2/6
f 555/2/6 552/2/6 556/2/6
